<svg width="54" height="54" viewBox="0 0 54 54" fill="none" xmlns="http://www.w3.org/2000/svg">
<g clip-path="url(#clip0_451_2879)">
<circle cx="27" cy="27" r="26.5781" fill="white" stroke="#ECEFF2" stroke-width="0.84375"/>
<path fill-rule="evenodd" clip-rule="evenodd" d="M27 52C40.8071 52 52 40.8071 52 27C52 13.1929 40.8071 2 27 2C13.1929 2 2 13.1929 2 27C2 40.8071 13.1929 52 27 52Z" fill="white"/>
<mask id="mask0_451_2879" style="mask-type:alpha" maskUnits="userSpaceOnUse" x="2" y="2" width="50" height="50">
<path fill-rule="evenodd" clip-rule="evenodd" d="M27 52C40.8071 52 52 40.8071 52 27C52 13.1929 40.8071 2 27 2C13.1929 2 2 13.1929 2 27C2 40.8071 13.1929 52 27 52Z" fill="white"/>
</mask>
<g mask="url(#mask0_451_2879)">
<path fill-rule="evenodd" clip-rule="evenodd" d="M18.9082 23.675L26.9998 15.5838L35.0956 23.6793L39.8039 18.9711L26.9998 6.16669L14.2 18.9668L18.9082 23.675ZM10.8752 22.2908L15.5834 26.9989L10.8748 31.7076L6.16663 26.9994L10.8752 22.2908ZM26.9998 38.4155L18.9082 30.3242L14.1931 35.0262L14.1997 35.0328L26.9998 47.8329L39.8039 35.0285L39.8062 35.0259L35.0953 30.3203L26.9998 38.4155ZM47.8333 27.0019L43.1249 31.7102L38.4167 27.0021L43.1251 22.2937L47.8333 27.0019ZM31.7775 26.9975H31.7755L31.7798 26.9998L31.7775 27.0025L26.9998 31.7798L22.2264 27.0064L22.2198 26.9998L22.2264 26.9929L23.0633 26.156L23.4687 25.7506H23.469L26.9998 22.2195L31.7775 26.9975Z" fill="#F5BC00"/>
</g>
</g>
<defs>
<clipPath id="clip0_451_2879">
<rect width="54" height="54" fill="white"/>
</clipPath>
</defs>
</svg>
